<?xml version="1.0" encoding="utf-8"?>
<svg version="1.1" xmlns:xlink="http://www.w3.org/1999/xlink" width="12px" height="12px" viewBox="2405 813.5  12 12" xmlns="http://www.w3.org/2000/svg">
  <path d="M 2411 813.5  C 2414.36 813.5  2417 816.14  2417 819.5  C 2417 822.86  2414.36 825.5  2411 825.5  C 2407.64 825.5  2405 822.86  2405 819.5  C 2405 816.14  2407.64 813.5  2411 813.5  Z " fill-rule="nonzero" fill="#ffffff" stroke="none" />
  <path d="M 2411 814  C 2414.08 814  2416.5 816.42  2416.5 819.5  C 2416.5 822.58  2414.08 825  2411 825  C 2407.92 825  2405.5 822.58  2405.5 819.5  C 2405.5 816.42  2407.92 814  2411 814  Z " stroke-width="1" stroke="#797979" fill="none" />
  <path d="M 2411 822.5  C 2409.32 822.5  2408 821.18  2408 819.5  C 2408 817.82  2409.32 816.5  2411 816.5  C 2412.68 816.5  2414 817.82  2414 819.5  C 2414 821.18  2412.68 822.5  2411 822.5  " fill-rule="nonzero" fill="#797979" stroke="none" />
</svg>