<?xml version="1.0" encoding="utf-8"?>
<svg version="1.1" xmlns:xlink="http://www.w3.org/1999/xlink" width="12px" height="12px" viewBox="2326 847.5  12 12" xmlns="http://www.w3.org/2000/svg">
  <path d="M 2332 847.5  C 2335.36 847.5  2338 850.14  2338 853.5  C 2338 856.86  2335.36 859.5  2332 859.5  C 2328.64 859.5  2326 856.86  2326 853.5  C 2326 850.14  2328.64 847.5  2332 847.5  Z " fill-rule="nonzero" fill="#ffffff" stroke="none" />
  <path d="M 2332 848  C 2335.08 848  2337.5 850.42  2337.5 853.5  C 2337.5 856.58  2335.08 859  2332 859  C 2328.92 859  2326.5 856.58  2326.5 853.5  C 2326.5 850.42  2328.92 848  2332 848  Z " stroke-width="1" stroke="#797979" fill="none" />
  <path d="M 2332 856.5  C 2330.32 856.5  2329 855.18  2329 853.5  C 2329 851.82  2330.32 850.5  2332 850.5  C 2333.68 850.5  2335 851.82  2335 853.5  C 2335 855.18  2333.68 856.5  2332 856.5  " fill-rule="nonzero" fill="#797979" stroke="none" />
</svg>