<?xml version="1.0" encoding="utf-8"?>
<svg version="1.1" xmlns:xlink="http://www.w3.org/1999/xlink" width="75px" height="10px" preserveAspectRatio="xMinYMid meet" viewBox="2262 252  75 8" xmlns="http://www.w3.org/2000/svg">
  <path d="M 2262 256  L 2327 256  A 5 5 0 0 0 2332 251 L 2332 148  A 3 3 0 0 0 2335 145 A 3 3 0 0 0 2332 142 L 2332 36  A 5 5 0 0 1 2337 31 L 3172 31  A 5 5 0 0 1 3177 36 L 3177 455  A 5 5 0 0 0 3182 460 L 3292 460  " stroke-width="2" stroke="#0099cc" fill="none" />
  <path d="M 3291 467.6  L 3298 460  L 3291 452.4  L 3291 467.6  Z " fill-rule="nonzero" fill="#0099cc" stroke="none" />
</svg>