<?xml version="1.0" encoding="utf-8"?>
<svg version="1.1" xmlns:xlink="http://www.w3.org/1999/xlink" width="12px" height="12px" viewBox="1313 430.5  12 12" xmlns="http://www.w3.org/2000/svg">
  <path d="M 1319 430.5  C 1322.36 430.5  1325 433.14  1325 436.5  C 1325 439.86  1322.36 442.5  1319 442.5  C 1315.64 442.5  1313 439.86  1313 436.5  C 1313 433.14  1315.64 430.5  1319 430.5  Z " fill-rule="nonzero" fill="#ffffff" stroke="none" />
  <path d="M 1319 431  C 1322.08 431  1324.5 433.42  1324.5 436.5  C 1324.5 439.58  1322.08 442  1319 442  C 1315.92 442  1313.5 439.58  1313.5 436.5  C 1313.5 433.42  1315.92 431  1319 431  Z " stroke-width="1" stroke="#797979" fill="none" />
  <path d="M 1319 439.5  C 1317.32 439.5  1316 438.18  1316 436.5  C 1316 434.82  1317.32 433.5  1319 433.5  C 1320.68 433.5  1322 434.82  1322 436.5  C 1322 438.18  1320.68 439.5  1319 439.5  " fill-rule="nonzero" fill="#797979" stroke="none" />
</svg>