<?xml version="1.0" encoding="utf-8"?>
<svg version="1.1" xmlns:xlink="http://www.w3.org/1999/xlink" width="12px" height="12px" viewBox="1194 469.5  12 12" xmlns="http://www.w3.org/2000/svg">
  <path d="M 1200 469.5  C 1203.36 469.5  1206 472.14  1206 475.5  C 1206 478.86  1203.36 481.5  1200 481.5  C 1196.64 481.5  1194 478.86  1194 475.5  C 1194 472.14  1196.64 469.5  1200 469.5  Z " fill-rule="nonzero" fill="#ffffff" stroke="none" />
  <path d="M 1200 470  C 1203.08 470  1205.5 472.42  1205.5 475.5  C 1205.5 478.58  1203.08 481  1200 481  C 1196.92 481  1194.5 478.58  1194.5 475.5  C 1194.5 472.42  1196.92 470  1200 470  Z " stroke-width="1" stroke="#797979" fill="none" />
  <path d="M 1200 478.5  C 1198.32 478.5  1197 477.18  1197 475.5  C 1197 473.82  1198.32 472.5  1200 472.5  C 1201.68 472.5  1203 473.82  1203 475.5  C 1203 477.18  1201.68 478.5  1200 478.5  " fill-rule="nonzero" fill="#797979" stroke="none" />
</svg>